# xmcd
#
# Track frame offsets:
#	150
#	14580
#	33950
#	50035
#	66417
#	81670
#	106547
#	124967
#	138517
#	157770
#
# Disc length: 2373 seconds
#
# Revision: 0
# Processed by: cddbd v1.4b42PL0 Copyright (c) Steve Scherf et al.
# Submitted via: EasyCDDAExtractor 4.5.0.2
#
DISCID=8709430a
DTITLE=Waylon Jennings - Waymore's Blues (Part II)
DYEAR=1900
DGENRE=Country
TTITLE0=Endangered Species
TTITLE1=Waymore's  Blues (Part II)
TTITLE2=This Train (Russell's Song)
TTITLE3=Wild Ones
TTITLE4=No Good For Me
TTITLE5=Old Timer (The Song)
TTITLE6=Up In Arkansas
TTITLE7=Nobody Knows
TTITLE8=Come Back And See Me
TTITLE9=You Don't Mess Around With Me
EXTD=
EXTT0=
EXTT1=
EXTT2=
EXTT3=
EXTT4=
EXTT5=
EXTT6=
EXTT7=
EXTT8=
EXTT9=
PLAYORDER=
